<svg xmlns="http://www.w3.org/2000/svg" viewBox="0 0 120 84"><g stroke="#0B0B0B" stroke-width="3" stroke-linejoin="round" stroke-linecap="round"><polygon points="116,34 10,8 44,36" fill="#FF3D7F"/><polygon points="116,34 44,36 40,44" fill="#C81F5A"/><polygon points="116,34 40,44 4,70" fill="#FF3D7F"/></g><polygon points="40.6,20.7 72.4,28.5 71.2,33.3 39.4,25.5" fill="#FFFFFF" stroke="#0B0B0B" stroke-width="1.5" stroke-linejoin="round"/><line x1="22.5" y1="13.5" x2="45" y2="32" stroke="#0B0B0B" stroke-width="1.6" stroke-dasharray="2.5 3.2" stroke-linecap="round"/><line x1="20" y1="60.6" x2="20" y2="62.5" stroke="#0B0B0B" stroke-width="2.2"/><line x1="23.2" y1="58.3" x2="23.2" y2="61.4" stroke="#0B0B0B" stroke-width="1.2"/><line x1="25.6" y1="56.6" x2="25.6" y2="60.7" stroke="#0B0B0B" stroke-width="1.2"/><line x1="29" y1="54.1" x2="29" y2="59.6" stroke="#0B0B0B" stroke-width="2.2"/><line x1="31.4" y1="52.4" x2="31.4" y2="58.8" stroke="#0B0B0B" stroke-width="1.2"/><line x1="34.8" y1="50.0" x2="34.8" y2="57.7" stroke="#0B0B0B" stroke-width="1.2"/><line x1="37.4" y1="48.1" x2="37.4" y2="56.9" stroke="#0B0B0B" stroke-width="2.2"/><circle cx="62" cy="46.2" r="3.4" fill="#FFFFFF" stroke="#0B0B0B" stroke-width="1.4"/></svg>
